<svg xmlns="http://www.w3.org/2000/svg" xmlns:xlink="http://www.w3.org/1999/xlink" width="100" zoomAndPan="magnify" viewBox="0 0 75 37.5" height="50" preserveAspectRatio="xMidYMid meet" version="1.0"><defs><g/></defs><g fill="#ffffff" fill-opacity="1"><g transform="translate(0.493421, 24.58101)"><g><path d="M 5.046875 0 L 2 0 L 2 -15.421875 L 5.046875 -15.421875 Z M 5.046875 0 "/></g></g></g><g fill="#ffffff" fill-opacity="1"><g transform="translate(7.55609, 24.58101)"><g><path d="M 9.34375 4.71875 L 9.34375 -1.390625 L 9.125 -1.4375 C 8.414062 -0.332031 7.285156 0.21875 5.734375 0.21875 C 4.816406 0.21875 4.003906 0 3.296875 -0.4375 C 2.597656 -0.882812 2.046875 -1.554688 1.640625 -2.453125 C 1.242188 -3.359375 1.046875 -4.46875 1.046875 -5.78125 C 1.046875 -7.125 1.25 -8.25 1.65625 -9.15625 C 2.070312 -10.0625 2.640625 -10.734375 3.359375 -11.171875 C 4.085938 -11.617188 4.929688 -11.84375 5.890625 -11.84375 C 6.617188 -11.84375 7.25 -11.707031 7.78125 -11.4375 C 8.320312 -11.175781 8.769531 -10.765625 9.125 -10.203125 L 9.34375 -10.234375 L 9.34375 -11.625 L 12.265625 -11.625 L 12.265625 4.71875 Z M 6.703125 -2.25 C 7.515625 -2.25 8.160156 -2.539062 8.640625 -3.125 C 9.117188 -3.707031 9.359375 -4.59375 9.359375 -5.78125 C 9.359375 -6.988281 9.117188 -7.890625 8.640625 -8.484375 C 8.160156 -9.078125 7.515625 -9.375 6.703125 -9.375 C 5.835938 -9.375 5.175781 -9.082031 4.71875 -8.5 C 4.269531 -7.925781 4.046875 -7.019531 4.046875 -5.78125 C 4.046875 -3.425781 4.929688 -2.25 6.703125 -2.25 Z M 6.703125 -2.25 "/></g></g></g><g fill="#ffffff" fill-opacity="1"><g transform="translate(21.491683, 24.58101)"><g><path d="M 6.765625 0.21875 C 5.617188 0.21875 4.613281 -0.015625 3.75 -0.484375 C 2.894531 -0.953125 2.226562 -1.632812 1.75 -2.53125 C 1.28125 -3.4375 1.046875 -4.53125 1.046875 -5.8125 C 1.046875 -7.09375 1.28125 -8.1875 1.75 -9.09375 C 2.226562 -10 2.894531 -10.679688 3.75 -11.140625 C 4.613281 -11.609375 5.617188 -11.84375 6.765625 -11.84375 C 7.898438 -11.84375 8.894531 -11.609375 9.75 -11.140625 C 10.613281 -10.679688 11.285156 -10 11.765625 -9.09375 C 12.242188 -8.1875 12.484375 -7.09375 12.484375 -5.8125 C 12.484375 -4.53125 12.242188 -3.4375 11.765625 -2.53125 C 11.285156 -1.632812 10.613281 -0.953125 9.75 -0.484375 C 8.894531 -0.015625 7.898438 0.21875 6.765625 0.21875 Z M 6.765625 -2.25 C 8.566406 -2.25 9.46875 -3.4375 9.46875 -5.8125 C 9.46875 -7.039062 9.234375 -7.941406 8.765625 -8.515625 C 8.304688 -9.085938 7.640625 -9.375 6.765625 -9.375 C 4.953125 -9.375 4.046875 -8.1875 4.046875 -5.8125 C 4.046875 -3.4375 4.953125 -2.25 6.765625 -2.25 Z M 6.765625 -2.25 "/></g></g></g><g fill="#ffffff" fill-opacity="1"><g transform="translate(35.005624, 24.58101)"><g><path d="M 1.671875 0 L 1.671875 -11.625 L 4.484375 -11.625 L 4.484375 -10.0625 L 4.703125 -10.03125 C 5.078125 -10.65625 5.519531 -11.113281 6.03125 -11.40625 C 6.539062 -11.695312 7.195312 -11.84375 8 -11.84375 C 8.875 -11.84375 9.578125 -11.671875 10.109375 -11.328125 C 10.640625 -10.984375 11.03125 -10.476562 11.28125 -9.8125 L 11.5 -9.8125 C 11.863281 -10.5 12.328125 -11.007812 12.890625 -11.34375 C 13.453125 -11.675781 14.15625 -11.84375 15 -11.84375 C 17.414062 -11.84375 18.625 -10.503906 18.625 -7.828125 L 18.625 0 L 15.703125 0 L 15.703125 -7.453125 C 15.703125 -8.140625 15.566406 -8.632812 15.296875 -8.9375 C 15.023438 -9.238281 14.597656 -9.390625 14.015625 -9.390625 C 12.410156 -9.390625 11.609375 -8.316406 11.609375 -6.171875 L 11.609375 0 L 8.6875 0 L 8.6875 -7.453125 C 8.6875 -8.140625 8.550781 -8.632812 8.28125 -8.9375 C 8.007812 -9.238281 7.578125 -9.390625 6.984375 -9.390625 C 6.234375 -9.390625 5.644531 -9.132812 5.21875 -8.625 C 4.800781 -8.125 4.59375 -7.328125 4.59375 -6.234375 L 4.59375 0 Z M 1.671875 0 "/></g></g></g><g fill="#ffffff" fill-opacity="1"><g transform="translate(55.118417, 24.58101)"><g><path d="M 5.328125 0.21875 C 4.015625 0.21875 3.046875 -0.132812 2.421875 -0.84375 C 1.804688 -1.5625 1.5 -2.585938 1.5 -3.921875 L 1.5 -11.625 L 4.421875 -11.625 L 4.421875 -4.296875 C 4.421875 -3.578125 4.570312 -3.054688 4.875 -2.734375 C 5.175781 -2.410156 5.648438 -2.25 6.296875 -2.25 C 7.097656 -2.25 7.722656 -2.515625 8.171875 -3.046875 C 8.628906 -3.578125 8.859375 -4.410156 8.859375 -5.546875 L 8.859375 -11.625 L 11.78125 -11.625 L 11.78125 0 L 8.96875 0 L 8.96875 -1.703125 L 8.75 -1.765625 C 8.375 -1.097656 7.914062 -0.597656 7.375 -0.265625 C 6.84375 0.0546875 6.160156 0.21875 5.328125 0.21875 Z M 5.328125 0.21875 "/></g></g></g><g fill="#ffffff" fill-opacity="1"><g transform="translate(68.569111, 24.58101)"><g><path d="M 2.96875 0.09375 C 2.601562 0.09375 2.273438 0.0195312 1.984375 -0.125 C 1.703125 -0.28125 1.484375 -0.488281 1.328125 -0.75 C 1.179688 -1.019531 1.109375 -1.328125 1.109375 -1.671875 C 1.109375 -2.003906 1.179688 -2.300781 1.328125 -2.5625 C 1.484375 -2.832031 1.703125 -3.046875 1.984375 -3.203125 C 2.273438 -3.359375 2.601562 -3.4375 2.96875 -3.4375 C 3.351562 -3.4375 3.6875 -3.359375 3.96875 -3.203125 C 4.25 -3.054688 4.460938 -2.847656 4.609375 -2.578125 C 4.765625 -2.316406 4.84375 -2.015625 4.84375 -1.671875 C 4.84375 -1.160156 4.671875 -0.738281 4.328125 -0.40625 C 3.992188 -0.0703125 3.539062 0.09375 2.96875 0.09375 Z M 2.96875 0.09375 "/></g></g></g></svg>