<?xml version="1.0" encoding="utf-8"?>
<!-- Generator: Adobe Illustrator 26.5.0, SVG Export Plug-In . SVG Version: 6.00 Build 0)  -->
<svg version="1.1" id="Layer_1" xmlns="http://www.w3.org/2000/svg" xmlns:xlink="http://www.w3.org/1999/xlink" x="0px" y="0px"
	 viewBox="0 0 100 50" style="enable-background:new 0 0 100 50;" xml:space="preserve">
<style type="text/css">
	.st0{fill:#FFFFFF;}
</style>
<g>
	<g transform="translate(0.493421, 24.58101)">
		<g>
			<path class="st0" d="M6.9,11H2.8v-31.5h4.1V11z"/>
		</g>
	</g>
</g>
<g>
	<g transform="translate(7.55609, 24.58101)">
		<g>
			<path class="st0" d="M15,20.6V8.1l-0.3-0.1c-0.9,2.3-2.5,3.4-4.5,3.4c-1.2,0-2.3-0.4-3.3-1.3C6,9.2,5.2,7.8,4.7,6
				C4.2,4.1,3.9,1.9,3.9-0.8c0-2.7,0.3-5,0.8-6.9C5.3-9.6,6-11,7-11.9c1-0.9,2.1-1.4,3.4-1.4c1,0,1.8,0.3,2.5,0.8
				c0.7,0.5,1.3,1.4,1.8,2.5L15-9.9v-2.8h3.9v33.4H15z M11.5,6.4c1.1,0,1.9-0.6,2.6-1.8c0.6-1.2,1-3,1-5.4c0-2.5-0.3-4.3-1-5.5
				c-0.6-1.2-1.5-1.8-2.6-1.8c-1.2,0-2,0.6-2.6,1.8c-0.6,1.2-0.9,3-0.9,5.6C7.9,4,9.1,6.4,11.5,6.4z"/>
		</g>
	</g>
</g>
<g>
	<g transform="translate(21.491683, 24.58101)">
		<g>
			<path class="st0" d="M16.2,11.4c-1.5,0-2.9-0.5-4-1.4c-1.1-1-2-2.3-2.7-4.2C8.9,4,8.6,1.7,8.6-0.9s0.3-4.9,0.9-6.7
				c0.6-1.9,1.5-3.2,2.7-4.2c1.2-1,2.5-1.4,4-1.4c1.5,0,2.8,0.5,4,1.4c1.2,0.9,2,2.3,2.7,4.2c0.6,1.9,1,4.1,1,6.7s-0.3,4.9-1,6.7
				C22.2,7.7,21.3,9,20.2,10C19,11,17.7,11.4,16.2,11.4z M16.2,6.4c2.4,0,3.6-2.4,3.6-7.3c0-2.5-0.3-4.4-0.9-5.5
				c-0.6-1.2-1.5-1.8-2.7-1.8c-2.4,0-3.6,2.4-3.6,7.3S13.8,6.4,16.2,6.4z"/>
		</g>
	</g>
</g>
<g>
	<g transform="translate(35.005624, 24.58101)">
		<g>
			<path class="st0" d="M13.9,11v-23.8h3.8v3.2l0.3,0.1c0.5-1.3,1.1-2.2,1.8-2.8c0.7-0.6,1.6-0.9,2.6-0.9c1.2,0,2.1,0.4,2.8,1.1
				c0.7,0.7,1.2,1.7,1.6,3.1H27c0.5-1.4,1.1-2.4,1.9-3.1c0.8-0.7,1.7-1,2.8-1c3.2,0,4.8,2.7,4.8,8.2v16h-3.9V-4.2
				c0-1.4-0.2-2.4-0.5-3c-0.4-0.6-0.9-0.9-1.7-0.9c-2.1,0-3.2,2.2-3.2,6.6V11h-3.9V-4.2c0-1.4-0.2-2.4-0.5-3
				c-0.4-0.6-0.9-0.9-1.7-0.9c-1,0-1.8,0.5-2.4,1.6c-0.6,1-0.8,2.7-0.8,4.9V11H13.9z"/>
		</g>
	</g>
</g>
<g>
	<g transform="translate(55.118417, 24.58101)">
		<g>
			<path class="st0" d="M25.5,11.4c-1.8,0-3-0.7-3.9-2.2c-0.8-1.5-1.2-3.6-1.2-6.3v-15.8h3.9v15c0,1.5,0.2,2.5,0.6,3.2
				c0.4,0.7,1,1,1.9,1c1.1,0,1.9-0.5,2.5-1.6c0.6-1.1,0.9-2.8,0.9-5.1v-12.4h3.9V11h-3.8V7.5L30,7.4c-0.5,1.4-1.1,2.4-1.8,3.1
				C27.5,11.1,26.6,11.4,25.5,11.4z"/>
		</g>
	</g>
</g>
<g>
	<g transform="translate(68.569111, 24.58101)">
		<g>
			<path class="st0" d="M26.8,11.2c-0.5,0-0.9-0.2-1.3-0.4c-0.4-0.3-0.7-0.7-0.9-1.3c-0.2-0.6-0.3-1.2-0.3-1.9
				c0-0.7,0.1-1.3,0.3-1.8c0.2-0.6,0.5-1,0.9-1.3C25.9,4.1,26.3,4,26.8,4c0.5,0,1,0.2,1.3,0.5c0.4,0.3,0.7,0.7,0.9,1.3
				c0.2,0.5,0.3,1.2,0.3,1.9c0,1-0.2,1.9-0.7,2.6C28.2,10.8,27.6,11.2,26.8,11.2z"/>
		</g>
	</g>
</g>
</svg>
